<svg width="18" height="18" viewBox="0 0 18 18" fill="none" xmlns="http://www.w3.org/2000/svg">
<path d="M11.625 9.8625H9.9975C8.6625 9.8625 7.575 8.7825 7.575 7.44V5.8125C7.575 5.505 7.3275 5.25 7.0125 5.25H4.635C2.9025 5.25 1.5 6.375 1.5 8.385V13.365C1.5 15.375 2.9025 16.5 4.635 16.5H9.0525C10.785 16.5 12.1875 15.375 12.1875 13.365V10.425C12.1875 10.11 11.9325 9.8625 11.625 9.8625Z" fill="url(#paint0_linear_205_2610)"/>
<path d="M13.365 1.5H11.8875H11.07H8.94751C7.25251 1.5 5.88001 2.58 5.82001 4.5075C5.86501 4.5075 5.90251 4.5 5.94751 4.5H8.07001H8.88751H10.365C12.0975 4.5 13.5 5.625 13.5 7.635V9.1125V11.145V12.6225C13.5 12.6675 13.4925 12.705 13.4925 12.7425C15.165 12.69 16.5 11.58 16.5 9.6225V8.145V6.1125V4.635C16.5 2.625 15.0975 1.5 13.365 1.5Z" fill="url(#paint1_linear_205_2610)"/>
<path d="M8.98498 5.3625C8.75248 5.13 8.35498 5.2875 8.35498 5.61V7.575C8.35498 8.4 9.05248 9.075 9.90748 9.075C10.44 9.0825 11.1825 9.0825 11.82 9.0825C12.1425 9.0825 12.3075 8.7075 12.0825 8.4825C11.265 7.665 9.80998 6.2025 8.98498 5.3625Z" fill="url(#paint2_linear_205_2610)"/>
<defs>
<linearGradient id="paint0_linear_205_2610" x1="2.17323" y1="7.24219" x2="12.4379" y2="8.25613" gradientUnits="userSpaceOnUse">
<stop stop-color="#236EC6"/>
<stop offset="1" stop-color="#1371E0"/>
</linearGradient>
<linearGradient id="paint1_linear_205_2610" x1="6.49276" y1="3.49086" x2="16.7503" y2="4.50405" gradientUnits="userSpaceOnUse">
<stop stop-color="#236EC6"/>
<stop offset="1" stop-color="#1371E0"/>
</linearGradient>
<linearGradient id="paint2_linear_205_2610" x1="8.59632" y1="5.93003" x2="12.2722" y2="6.31229" gradientUnits="userSpaceOnUse">
<stop stop-color="#236EC6"/>
<stop offset="1" stop-color="#1371E0"/>
</linearGradient>
</defs>
</svg>
