<svg width="5" height="18" viewBox="0 0 5 18" fill="none" xmlns="http://www.w3.org/2000/svg">
<path d="M0.450032 9.00023C0.450032 9.99015 1.25252 10.7926 2.24245 10.7926C3.23237 10.7926 4.03486 9.99015 4.03486 9.00023C4.03486 8.0103 3.23237 7.20781 2.24245 7.20781C1.25252 7.20781 0.450032 8.0103 0.450032 9.00023Z" stroke="#B6B6B6" stroke-width="0.9"/>
<path d="M0.450032 2.24266C0.450032 3.23258 1.25252 4.03508 2.24245 4.03508C3.23237 4.03508 4.03486 3.23258 4.03486 2.24266C4.03486 1.25274 3.23237 0.450244 2.24245 0.450244C1.25252 0.450244 0.450032 1.25274 0.450032 2.24266Z" stroke="#B6B6B6" stroke-width="0.9"/>
<path d="M0.450032 15.7578C0.450032 16.7477 1.25252 17.5502 2.24245 17.5502C3.23237 17.5502 4.03486 16.7477 4.03486 15.7578C4.03486 14.7678 3.23237 13.9654 2.24245 13.9654C1.25252 13.9654 0.450032 14.7678 0.450032 15.7578Z" stroke="#B6B6B6" stroke-width="0.9"/>
</svg>
