<svg width="24" height="24" viewBox="0 0 24 24" fill="none" xmlns="http://www.w3.org/2000/svg">
<path d="M16.14 2.96013L7.11 5.96013C1.04 7.99013 1.04 11.3001 7.11 13.3201L9.79 14.2101L10.68 16.8901C12.7 22.9601 16.02 22.9601 18.04 16.8901L21.05 7.87013C22.39 3.82013 20.19 1.61013 16.14 2.96013ZM16.46 8.34013L12.66 12.1601C12.51 12.3101 12.32 12.3801 12.13 12.3801C11.94 12.3801 11.75 12.3101 11.6 12.1601C11.31 11.8701 11.31 11.3901 11.6 11.1001L15.4 7.28013C15.69 6.99013 16.17 6.99013 16.46 7.28013C16.75 7.57013 16.75 8.05013 16.46 8.34013Z" fill="url(#paint0_linear_205_2253)"/>
<defs>
<linearGradient id="paint0_linear_205_2253" x1="3.74712" y1="5.90674" x2="21.8662" y2="7.79134" gradientUnits="userSpaceOnUse">
<stop stop-color="#108DA6"/>
<stop offset="1" stop-color="#47A4ED"/>
</linearGradient>
</defs>
</svg>
