<svg width="24" height="24" viewBox="0 0 24 24" fill="none" xmlns="http://www.w3.org/2000/svg">
<path d="M17 2.42999H7C4 2.42999 2 4.42999 2 7.42999V13.43C2 16.43 4 18.43 7 18.43H11L15.45 21.39C16.11 21.83 17 21.36 17 20.56V18.43C20 18.43 22 16.43 22 13.43V7.42999C22 4.42999 20 2.42999 17 2.42999ZM15.5 11.25H8.5C8.09 11.25 7.75 10.91 7.75 10.5C7.75 10.09 8.09 9.74999 8.5 9.74999H15.5C15.91 9.74999 16.25 10.09 16.25 10.5C16.25 10.91 15.91 11.25 15.5 11.25Z" fill="url(#paint0_linear_205_2548)"/>
<defs>
<linearGradient id="paint0_linear_205_2548" x1="3.25984" y1="5.8174" x2="22.4295" y2="7.9014" gradientUnits="userSpaceOnUse">
<stop stop-color="#108DA6"/>
<stop offset="1" stop-color="#47A4ED"/>
</linearGradient>
</defs>
</svg>
