<svg width="24" height="24" viewBox="0 0 24 24" fill="none" xmlns="http://www.w3.org/2000/svg">
<path d="M7.87999 12.07C7.87999 11.66 8.21999 11.32 8.62999 11.32H14.11V2.86C14.1 2.38 13.72 2 13.24 2C7.34999 2 3.23999 6.11 3.23999 12C3.23999 17.89 7.34999 22 13.24 22C13.71 22 14.1 21.62 14.1 21.14V12.81H8.62999C8.20999 12.82 7.87999 12.48 7.87999 12.07Z" fill="#F02037"/>
<path d="M20.5401 11.54L17.7001 8.69C17.4101 8.4 16.9301 8.4 16.6401 8.69C16.3501 8.98 16.3501 9.46 16.6401 9.75L18.2001 11.31H14.1001V12.81H18.1901L16.6301 14.37C16.3401 14.66 16.3401 15.14 16.6301 15.43C16.7801 15.58 16.9701 15.65 17.1601 15.65C17.3501 15.65 17.5401 15.58 17.6901 15.43L20.5301 12.58C20.8301 12.3 20.8301 11.83 20.5401 11.54Z" fill="#F02037"/>
</svg>
