<svg width="159" height="396" viewBox="0 0 159 396" fill="none" xmlns="http://www.w3.org/2000/svg">
<path d="M0 40.5L66 81L0 114.501V40.5Z" fill="#E0E1DD"/>
<path d="M34.5 37L86 69.5L150 37L91.5 0L34.5 37Z" fill="#E0E1DD"/>
<path d="M0 136L159 52.5V144.5C158.667 159.333 148 193.4 108 211V280L44.5 208C29.6667 200.833 0 176.4 0 136Z" fill="#E0E1DD"/>
<path d="M1.5 395L0.5 327.5H13.5L26 375.5L38 327.5H51V395H40V362L31.5 395H21L12 362V395H1.5Z" fill="#E0E1DD"/>
<path d="M105 349V338C103.667 334.167 98.8 326.5 90 326.5C81.2 326.5 76.6667 333.167 75.5 336.5V351.5C75.5 352.833 77.3 357 84.5 363C87.5 364.833 93.7 369.1 94.5 371.5V383C93 384.833 89.2 387.4 86 383V373H75.5V385C76.5 387.667 80 393.4 86 395H95.5C98 394 103.4 390.6 105 385V371.5C104.667 369.333 102.3 363.8 95.5 359C93.9 358.2 88.5 353.667 86 351.5V339C86.3333 338.167 87.6 336.5 90 336.5C92.4 336.5 93.3333 338.167 93.5 339V349H105Z" fill="#E0E1DD"/>
<path d="M159 348V337.5C157.667 333.833 152.9 326.5 144.5 326.5C136.1 326.5 131 333.833 129.5 337.5V385C130.833 388.667 135.7 396 144.5 396C153.3 396 157.833 388.667 159 385V356H143.5V366H148.5V382.5C148.333 383.333 147.3 385 144.5 385C141.7 385 140.333 383.333 140 382.5V339C140.5 338.167 142.1 336.5 144.5 336.5C146.9 336.5 148.167 338.167 148.5 339V348H159Z" fill="#E0E1DD"/>
</svg>
