<svg width="16" height="16" viewBox="0 0 16 16" fill="none" xmlns="http://www.w3.org/2000/svg">
<rect x="4" y="4" width="8" height="8" fill="white"/>
<path d="M7.99998 1.33333C4.32665 1.33333 1.33331 4.32666 1.33331 8C1.33331 11.6733 4.32665 14.6667 7.99998 14.6667C11.6733 14.6667 14.6666 11.6733 14.6666 8C14.6666 4.32666 11.6733 1.33333 7.99998 1.33333ZM10.6666 8.5H8.49998V10.6667C8.49998 10.94 8.27331 11.1667 7.99998 11.1667C7.72665 11.1667 7.49998 10.94 7.49998 10.6667V8.5H5.33331C5.05998 8.5 4.83331 8.27333 4.83331 8C4.83331 7.72666 5.05998 7.5 5.33331 7.5H7.49998V5.33333C7.49998 5.05999 7.72665 4.83333 7.99998 4.83333C8.27331 4.83333 8.49998 5.05999 8.49998 5.33333V7.5H10.6666C10.94 7.5 11.1666 7.72666 11.1666 8C11.1666 8.27333 10.94 8.5 10.6666 8.5Z" fill="url(#paint0_linear_205_2642)"/>
<defs>
<linearGradient id="paint0_linear_205_2642" x1="2.17321" y1="3.69444" x2="14.9657" y2="5.02458" gradientUnits="userSpaceOnUse">
<stop stop-color="#108DA6"/>
<stop offset="1" stop-color="#47A4ED"/>
</linearGradient>
</defs>
</svg>
