<svg width="24" height="24" viewBox="0 0 24 24" fill="none" xmlns="http://www.w3.org/2000/svg">
<path d="M19.3301 16.75C19.1701 16.75 19.0201 16.7 18.8801 16.6C18.5501 16.35 18.4801 15.88 18.7301 15.55C20.3001 13.46 20.3001 10.54 18.7301 8.45C18.4801 8.12 18.5501 7.65 18.8801 7.4C19.2101 7.15 19.6801 7.22 19.9301 7.55C21.9001 10.17 21.9001 13.83 19.9301 16.45C19.7901 16.65 19.5601 16.75 19.3301 16.75Z" fill="#4A4E51"/>
<path d="M15.3501 3.78C14.2301 3.16 12.8001 3.32 11.3401 4.23L8.42008 6.06C8.22008 6.18 7.99008 6.25 7.76008 6.25H6.83008H6.33008C3.91008 6.25 2.58008 7.58 2.58008 10V14C2.58008 16.42 3.91008 17.75 6.33008 17.75H6.83008H7.76008C7.99008 17.75 8.22008 17.82 8.42008 17.94L11.3401 19.77C12.2201 20.32 13.0801 20.59 13.8801 20.59C14.4001 20.59 14.9001 20.47 15.3501 20.22C16.4601 19.6 17.0801 18.31 17.0801 16.59V7.41C17.0801 5.69 16.4601 4.4 15.3501 3.78Z" fill="#4A4E51"/>
</svg>
